PathFileType	4	(X/Y/Z)	/Users/itak/Documents/Research/Walk-IL/dataset/trc/00550_00009.trc
DataRate	CameraRate	NumFrames	NumMarkers	Units	OrigDataRate	OrigDataStartFrame	OrigNumFrames
100.000000	100.000000	4	53	mm	100.000000	271	543
Frame#	Time	RPSI			LPSI			L3			STRN			T10			C7			CLAV			RBAK			LBAK			LSHO			LUPA			LAEL			LAOL			LWTS			LWPS			LFRA			LIFD			LHPS			LHTS			RSHO			RUPA			RAEL			RAOL			RWTS			RWPS			RFRA			RIFD			RHTS			RHPS			RBHD			LFHD			RFHD			LBHD			LHIP			RHIP			RASI			LASI			LKNE			LTHI			LANK			LTIP			LTOE			LMT1			LMT5			LHEE			RKNE			RTHI			RANK			RTIP			RTOE			RMT1			RMT5			RHEE			
		X1	Y1	Z1	X2	Y2	Z2	X3	Y3	Z3	X4	Y4	Z4	X5	Y5	Z5	X6	Y6	Z6	X7	Y7	Z7	X8	Y8	Z8	X9	Y9	Z9	X10	Y10	Z10	X11	Y11	Z11	X12	Y12	Z12	X13	Y13	Z13	X14	Y14	Z14	X15	Y15	Z15	X16	Y16	Z16	X17	Y17	Z17	X18	Y18	Z18	X19	Y19	Z19	X20	Y20	Z20	X21	Y21	Z21	X22	Y22	Z22	X23	Y23	Z23	X24	Y24	Z24	X25	Y25	Z25	X26	Y26	Z26	X27	Y27	Z27	X28	Y28	Z28	X29	Y29	Z29	X30	Y30	Z30	X31	Y31	Z31	X32	Y32	Z32	X33	Y33	Z33	X34	Y34	Z34	X35	Y35	Z35	X36	Y36	Z36	X37	Y37	Z37	X38	Y38	Z38	X39	Y39	Z39	X40	Y40	Z40	X41	Y41	Z41	X42	Y42	Z42	X43	Y43	Z43	X44	Y44	Z44	X45	Y45	Z45	X46	Y46	Z46	X47	Y47	Z47	X48	Y48	Z48	X49	Y49	Z49	X50	Y50	Z50	X51	Y51	Z51	X52	Y52	Z52	X53	Y53	Z53	

272	2.71	-167.2964477539062	977.3106079101562	301.9597778320312	-169.4215393066406	976.4558715820312	168.8013610839844	-161.1718597412109	1075.93017578125	235.2897796630859	83.32022094726562	1254.83349609375	213.6437225341797	-164.3780059814453	1201.7802734375	236.3498992919922	-101.4973678588867	1473.30078125	244.1751708984375	68.07102203369141	1366.7705078125	214.0790557861328	-166.7984771728516	1350.848266601562	336.9362487792969	-147.4681243896484	1422.187377929688	157.3979187011719	-57.99235916137695	1443.714477539062	65.32071685791016	-89.61666107177734	1319.830810546875	-13.11129951477051	-103.3186874389648	1098.329345703125	-36.1169319152832	-183.1982269287109	1101.221313476562	27.17108917236328	-33.08171844482422	845.824462890625	3.136748552322388	-87.68120574951172	828.8209838867188	-63.51235961914062	-91.4354248046875	1009.971252441406	-45.08705902099609	-59.70962142944336	676.7393798828125	0.3563887476921082	-86.25875091552734	768.2998046875	-54.99386978149414	-30.01928520202637	766.689453125	-16.18947792053223	-26.5067024230957	1431.95263671875	391.2738037109375	-39.7895393371582	1368.544677734375	460.7365112304688	-40.43764114379883	1081.736083984375	515.314697265625	-98.37415313720703	1063.725463867188	494.2518920898438	89.17057800292969	859.7987670898438	471.8414611816406	51.17739105224609	841.6185913085938	542.4146728515625	-29.47707748413086	1026.656494140625	524.5861206054688	102.9141540527344	686.3089599609375	483.4015808105469	118.6720275878906	768.884033203125	486.580078125	67.70237731933594	767.3302612304688	540.4960327148438	-1.766440153121948	1649.519897460938	301.8895263671875	146.741455078125	1657.568359375	156.5203552246094	139.0215148925781	1653.558715820312	300.5729370117188	14.17848491668701	1651.28955078125	137.3365631103516	-31.08114624023438	909.0499877929688	42.75374221801758	-50.98179626464844	905.1138305664062	428.0230712890625	41.88639068603516	931.38818359375	372.8634948730469	42.48710632324219	937.0171508789062	97.48688507080078	176.4538421630859	513.4453735351562	104.5890808105469	104.0720062255859	661.792724609375	64.17408752441406	181.4250183105469	30.3526554107666	113.3198852539062	165.3028717041016	254.4130706787109	102.5960235595703	389.7268676757812	60.53060150146484	160.6755981445312	320.804443359375	54.67644882202148	199.3369750976562	300.868896484375	39.41747283935547	96.42327117919922	115.8960342407227	35.28606796264648	170.7114105224609	-129.3688659667969	472.1614990234375	367.8458862304688	-37.59941482543945	747.779052734375	416.4743347167969	-390.7611389160156	64.51561737060547	346.030029296875	-185.7231750488281	335.8800354003906	352.7009887695312	-178.2712554931641	39.01959228515625	299.8252563476562	-240.2252807617188	46.84200286865234	261.6887817382812	-263.0093994140625	36.80247116088867	364.4248962402344	-447.3875427246094	79.06996917724609	291.8568115234375	
273	2.72	-157.044189453125	977.4414672851562	300.5553894042969	-159.2754211425781	977.0353393554688	167.40673828125	-151.0256042480469	1076.128173828125	234.0286254882812	92.658935546875	1255.728637695312	212.1872253417969	-154.9154357910156	1202.07666015625	234.9650726318359	-92.81928253173828	1473.814819335938	242.1301422119141	77.02397155761719	1367.622436523438	212.5083312988281	-157.9006042480469	1351.320556640625	334.9235534667969	-138.5564117431641	1422.450317382812	155.3781127929688	-48.97808837890625	1444.02490234375	63.43279647827148	-79.89780426025391	1319.925537109375	-14.96340274810791	-92.44285583496094	1098.358276367188	-37.95967483520508	-172.5898590087891	1100.938354492188	25.06852722167969	-21.97286224365234	845.8504638671875	1.376974940299988	-76.20771026611328	828.939697265625	-65.57779693603516	-80.3546142578125	1010.014892578125	-46.90360641479492	-48.54937362670898	676.735107421875	-1.756516098976135	-74.83918762207031	768.3677368164062	-57.10612487792969	-18.82721900939941	766.69775390625	-18.01175308227539	-17.9682731628418	1432.922729492188	389.4742736816406	-31.50999641418457	1369.571166992188	458.9587707519531	-33.80067825317383	1082.818725585938	513.6891479492188	-91.69374847412109	1065.07421875	492.1425170898438	94.89916229248047	860.0044555664062	471.5945739746094	56.27245330810547	842.2410888671875	541.8809814453125	-23.16366767883301	1027.725341796875	523.0153198242188	107.4400024414062	686.4585571289062	483.5671081542969	123.6154632568359	768.8978881835938	486.6392517089844	72.28726196289062	767.8257446289062	540.19140625	6.604672431945801	1650.333374023438	299.7436828613281	155.1598052978516	1658.485961914062	154.4670867919922	147.3796844482422	1654.650634765625	298.5400695800781	22.62759590148926	1651.909912109375	135.2308349609375	-20.76395225524902	910.4465942382812	41.20473861694336	-40.47233963012695	905.0637817382812	426.2786254882812	52.14815902709961	931.6859130859375	371.0897216796875	52.832275390625	938.5584716796875	95.75685882568359	185.7029266357422	513.9405517578125	103.3034439086914	114.1699981689453	663.1053466796875	63.44108581542969	181.9522857666016	30.4187068939209	113.1679000854492	170.5931854248047	254.5999908447266	101.98388671875	391.5011901855469	56.56026077270508	160.9967193603516	322.0216979980469	52.74649810791016	199.4238586425781	301.8381652832031	38.19818496704102	96.20173645019531	116.5551300048828	36.12868499755859	170.5227661132812	-118.5381088256836	472.1946411132812	366.9242858886719	-27.03291511535645	747.7826538085938	414.5841979980469	-388.8211669921875	69.35690307617188	346.5928039550781	-177.3780059814453	336.5518798828125	352.5336608886719	-177.9541015625	38.97092437744141	299.8683166503906	-239.1746520996094	47.93129348754883	261.6754150390625	-262.106201171875	37.21512222290039	364.17822265625	-444.8683776855469	86.02129364013672	292.4071044921875	
274	2.73	-146.7652740478516	977.7262573242188	299.1340637207031	-149.0799865722656	977.720458984375	165.9769439697266	-140.8699951171875	1076.5595703125	232.72705078125	101.9919967651367	1256.840087890625	210.6956176757812	-145.4632720947266	1202.55517578125	233.5461120605469	-84.14337158203125	1474.527465820312	240.1137847900391	85.98832702636719	1368.694702148438	210.9173278808594	-148.9566345214844	1351.99658203125	332.9889831542969	-129.6584014892578	1422.892822265625	153.3961944580078	-40.00789642333984	1444.564819335938	61.56720733642578	-70.20665740966797	1320.273315429688	-16.82135772705078	-81.51340484619141	1098.640991210938	-39.83385467529297	-161.8655090332031	1100.837524414062	22.93315315246582	-10.51066589355469	846.2008666992188	-0.4533061981201172	-64.38296508789062	829.330810546875	-67.70033264160156	-69.09877014160156	1010.3212890625	-48.76848602294922	-36.86962890625	677.0135498046875	-3.946836233139038	-62.98918151855469	768.73046875	-59.29591369628906	-7.230480194091797	767.0338134765625	-19.89244651794434	-9.367606163024902	1434.081909179688	387.6725769042969	-23.12085914611816	1370.796875	457.1822814941406	-27.10403442382812	1084.1142578125	512.1033935546875	-84.97200012207031	1066.651123046875	490.1333312988281	100.5808792114258	860.3968505859375	471.2992858886719	61.36339569091797	843.0582275390625	541.3091430664062	-16.7795238494873	1029.0126953125	521.4783325195312	111.8815231323242	686.8070068359375	483.6182250976562	128.5332336425781	769.1205444335938	486.6137390136719	76.82499694824219	768.50390625	539.7998657226562	15.00016212463379	1651.360107421875	297.59716796875	163.5816497802734	1659.557495117188	152.4017944335938	155.7599029541016	1655.915771484375	296.4845886230469	31.07843208312988	1652.7275390625	133.1235198974609	-10.43243789672852	911.8541259765625	39.59392166137695	-29.86067962646484	905.2404174804688	424.4800720214844	62.43555068969727	932.2195434570312	369.2354125976562	63.21257019042969	940.129638671875	93.93843841552734	194.3213806152344	514.137451171875	101.8484420776367	123.6591567993164	664.075927734375	62.29946136474609	182.4381408691406	30.5093994140625	113.021842956543	175.4107208251953	254.6996459960938	101.3399429321289	393.0205688476562	53.18381118774414	161.3015594482422	323.0346374511719	51.29535293579102	199.5333251953125	302.6713256835938	37.30695724487305	95.96601867675781	117.150016784668	36.7341194152832	170.3053741455078	-106.8565368652344	472.2237243652344	366.2376098632812	-16.2404613494873	747.9967041015625	412.7225036621094	-386.4694213867188	74.74774932861328	347.192626953125	-168.2875213623047	337.3288879394531	352.5603332519531	-177.6553344726562	38.951904296875	299.869140625	-237.9830322265625	49.13013076782227	261.6156921386719	-261.0554504394531	37.81135559082031	363.9066772460938	-441.7350463867188	93.69477844238281	292.963134765625	
275	2.74	-136.5081176757812	978.1690673828125	297.6795959472656	-138.8735961914062	978.5342407226562	164.4886627197266	-130.7296447753906	1077.196533203125	231.3376312255859	111.3106231689453	1258.155395507812	209.1878356933594	-136.0267181396484	1203.20068359375	232.0544281005859	-75.48348236083984	1475.42041015625	238.1228637695312	94.95340728759766	1369.972778320312	209.3181915283203	-140.0033416748047	1352.850463867188	331.1043090820312	-120.7809600830078	1423.501220703125	151.44091796875	-31.08185577392578	1445.318603515625	59.72208404541016	-60.55131912231445	1320.859619140625	-18.68425750732422	-70.55354309082031	1099.162231445312	-41.74668121337891	-151.0448913574219	1100.9091796875	20.7662525177002	1.293535947799683	846.8770141601562	-2.355083703994751	-52.22917556762695	829.9800415039062	-69.86466217041016	-57.69560241699219	1010.878295898438	-50.68356323242188	-24.65468597412109	677.5741577148438	-6.191643714904785	-50.71875762939453	769.3775024414062	-61.54419708251953	4.78422212600708	767.7092895507812	-21.83358383178711	-0.7487428784370422	1435.410522460938	385.871826171875	-14.67395877838135	1372.199829101562	455.4065856933594	-20.3223991394043	1085.600341796875	510.5624694824219	-78.17079162597656	1068.42138671875	488.2506713867188	106.2367630004883	860.9590454101562	470.921630859375	66.48906707763672	844.0498657226562	540.6947631835938	-10.30556011199951	1030.497192382812	519.986328125	116.2624969482422	687.3367919921875	483.5365295410156	133.4415130615234	769.5314331054688	486.4764099121094	81.36653137207031	769.3502197265625	539.3165283203125	23.40250015258789	1652.59326171875	295.4654235839844	171.9937896728516	1660.776000976562	150.3429412841797	164.1484680175781	1657.344604492188	294.4208984375	39.51900863647461	1653.740356445312	131.0278778076172	-0.1255790591239929	913.2654418945312	37.91492080688477	-19.22550582885742	905.63525390625	422.624267578125	72.69837188720703	932.9708862304688	367.3251953125	73.57949829101562	941.6964111328125	92.05909729003906	202.2304077148438	514.0364379882812	100.290153503418	132.4590454101562	664.6605224609375	60.8195686340332	182.8584594726562	30.60181427001953	112.8856964111328	179.6916046142578	254.7036743164062	100.696159362793	394.2736511230469	50.39603805541992	161.5606842041016	323.8517150878906	50.26201248168945	199.6559600830078	303.349365234375	36.68442153930664	95.71913909912109	117.6493453979492	37.13307952880859	170.0924987792969	-94.30776977539062	472.2140197753906	365.842041015625	-5.241639614105225	748.4229736328125	410.8916015625	-383.6278076171875	80.71068572998047	347.8036193847656	-158.4078521728516	338.1898498535156	352.8089294433594	-177.3903198242188	38.95005035400391	299.8202209472656	-236.6569519042969	50.40981292724609	261.5239562988281	-259.8455810546875	38.6408805847168	363.63330078125	-437.8909912109375	102.0920715332031	293.4903564453125	
